<svg width="32" height="35" viewBox="0 0 32 35" fill="none" xmlns="http://www.w3.org/2000/svg">
<path d="M25.7188 19.209H7.09375C6.23062 19.209 5.53125 18.444 5.53125 17.5C5.53125 16.556 6.23062 15.791 7.09375 15.791H25.7188C26.5819 15.791 27.2812 16.556 27.2812 17.5C27.2812 18.444 26.5819 19.209 25.7188 19.209Z" fill="black"/>
<path d="M14.2494 27.2925C13.8694 27.2925 13.4881 27.1414 13.1875 26.8365L5.21876 18.753C4.89751 18.4269 4.71563 17.9682 4.71876 17.4883C4.72188 17.0092 4.90876 16.5525 5.23438 16.2312L13.4219 8.14773C14.0625 7.5154 15.0506 7.57077 15.6288 8.27146C16.2069 8.97214 16.1563 10.0529 15.5156 10.6852L8.59563 17.5171L15.3125 24.3304C15.945 24.9723 15.9825 26.0538 15.3956 26.7456C15.0875 27.1086 14.6694 27.2925 14.2494 27.2925Z" fill="black"/>
</svg>
