<svg width="10" height="6" viewBox="0 0 10 6" fill="none" xmlns="http://www.w3.org/2000/svg">
<path d="M9.77771 1.29592L5.53676 5.53687C5.39439 5.6792 5.20132 5.75916 5 5.75916C4.79868 5.75916 4.60561 5.6792 4.46324 5.53687L0.222287 1.29592C0.116142 1.18974 0.0438602 1.05448 0.0145793 0.907226C-0.0147016 0.759974 0.000332895 0.607348 0.0577824 0.468641C0.115232 0.329933 0.212517 0.211372 0.337339 0.127946C0.462161 0.0445213 0.608914 -2.29148e-05 0.759049 -5.48695e-05L9.24095 -5.52402e-05C9.39108 -2.32987e-05 9.53784 0.0445209 9.66266 0.127946C9.78748 0.211371 9.88477 0.329933 9.94222 0.46864C9.99967 0.607348 10.0147 0.759974 9.98542 0.907225C9.95614 1.05448 9.88386 1.18974 9.77771 1.29592Z" fill="#242424"/>
</svg>
