<svg width="25" height="25" viewBox="0 0 25 25" fill="none" xmlns="http://www.w3.org/2000/svg">
<path d="M11.1531 5.63958L16.9719 11.4583C17.1672 11.6537 17.2769 11.9186 17.2769 12.1948C17.2769 12.471 17.1672 12.7359 16.9719 12.9312L11.1531 18.75C11.0074 18.8956 10.8219 18.9948 10.6198 19.035C10.4178 19.0752 10.2084 19.0545 10.0181 18.9757C9.82775 18.8969 9.66508 18.7634 9.55062 18.5921C9.43615 18.4209 9.37504 18.2195 9.37499 18.0135L9.375 6.37604C9.37504 6.17005 9.43616 5.9687 9.55062 5.79744C9.66508 5.62618 9.82775 5.4927 10.0181 5.41387C10.2084 5.33505 10.4178 5.31442 10.6198 5.3546C10.8219 5.39477 11.0074 5.49395 11.1531 5.63958Z" fill="#242424"/>
</svg>
