<svg width="20" height="20" viewBox="0 0 20 20" fill="none" xmlns="http://www.w3.org/2000/svg">
<path d="M17.5 4.16667L15 11.6667H4.99999L4.16666 4.16667H17.5Z" fill="black" fill-opacity="0.15"/>
<path d="M15.8333 15.8333C15.8333 16.7538 15.0871 17.5 14.1667 17.5C13.2462 17.5 12.5 16.7538 12.5 15.8333C12.5 14.9129 13.2462 14.1667 14.1667 14.1667C15.0871 14.1667 15.8333 14.9129 15.8333 15.8333Z" fill="black" fill-opacity="0.15"/>
<path d="M9.16666 15.8333C9.16666 16.7538 8.42046 17.5 7.49999 17.5C6.57952 17.5 5.83332 16.7538 5.83332 15.8333C5.83332 14.9129 6.57952 14.1667 7.49999 14.1667C8.42046 14.1667 9.16666 14.9129 9.16666 15.8333Z" fill="black" fill-opacity="0.15"/>
<path d="M1.66666 2.5H3.74999L3.98809 4.16667M14.1667 14.1667C13.2462 14.1667 12.5 14.9129 12.5 15.8333C12.5 16.7538 13.2462 17.5 14.1667 17.5C15.0871 17.5 15.8333 16.7538 15.8333 15.8333C15.8333 14.9129 15.0871 14.1667 14.1667 14.1667ZM14.1667 14.1667H7.49999M7.49999 14.1667C6.57952 14.1667 5.83332 14.9129 5.83332 15.8333C5.83332 16.7538 6.57952 17.5 7.49999 17.5C8.42046 17.5 9.16666 16.7538 9.16666 15.8333C9.16666 14.9129 8.42046 14.1667 7.49999 14.1667ZM7.49999 14.1667H5.41666L5.05951 11.6667M5.05951 11.6667H15L17.5 4.16667H3.98809M5.05951 11.6667L3.98809 4.16667" stroke="white" stroke-width="1.5" stroke-linecap="round" stroke-linejoin="round"/>
</svg>
