<svg width="33" height="33" viewBox="0 0 33 33" fill="none" xmlns="http://www.w3.org/2000/svg">
<path d="M28.4767 14.6897C28.5919 14.3203 28.6549 13.9365 28.6639 13.5496V8.18451C28.6639 4.3619 22.9146 1.47816 15.2935 1.47816C7.67242 1.47816 1.92316 4.3619 1.92316 8.18451V13.5496C1.99686 14.4432 2.29887 15.3026 2.80004 16.045C3.30122 16.7874 3.98465 17.3877 4.78442 17.788C4.66165 18.1509 4.59844 18.5314 4.59723 18.9147V24.2798C4.59723 28.1024 10.3465 30.9861 17.9676 30.9861C25.5887 30.9861 31.338 28.1024 31.338 24.2798V18.9147C31.2659 18.0224 30.9644 17.1641 30.4629 16.4236C29.9614 15.6831 29.2771 15.0857 28.4767 14.6897ZM15.2935 20.2559C20.4411 20.2559 24.733 18.9147 26.9792 16.9028C28.0489 17.5466 28.6639 18.244 28.6639 18.9147C28.6639 20.551 24.4923 22.9385 17.9676 22.9385C11.4429 22.9385 7.39164 20.6181 7.27131 18.9817C9.85252 19.8658 12.5663 20.2968 15.2935 20.2559ZM15.2935 4.1607C21.8183 4.1607 25.9898 6.54816 25.9898 8.18451C25.9898 9.82086 21.8183 12.2083 15.2935 12.2083C8.76879 12.2083 4.59723 9.82086 4.59723 8.18451C4.59723 6.54816 8.76879 4.1607 15.2935 4.1607ZM4.59723 12.2888C7.84915 14.1445 11.5555 15.0462 15.2935 14.8909C19.0316 15.0462 22.7379 14.1445 25.9898 12.2888V13.5496C25.9898 15.1859 21.8183 17.5734 15.2935 17.5734C8.76879 17.5734 4.59723 15.1859 4.59723 13.5496V12.2888ZM17.9676 28.3036C11.4429 28.3036 7.27131 25.9161 7.27131 24.2798V23.019C10.5232 24.8747 14.2295 25.7763 17.9676 25.621C21.7057 25.7763 25.412 24.8747 28.6639 23.019V24.2798C28.6639 25.9161 24.4923 28.3036 17.9676 28.3036Z" fill="white"/>
</svg>
