<svg width="20" height="20" viewBox="0 0 20 20" fill="none" xmlns="http://www.w3.org/2000/svg">
<g clip-path="url(#clip0_12_260)">
<path d="M20 3.70062L16.9242 0H3.07579L0 3.70065V19.5455H20V3.70062ZM18.3503 3.67249H12.0611V1.25181H16.3383L18.3503 3.67249ZM9.18892 4.92429H10.8111V6.56424L10 6.00813L9.18892 6.56424V4.92429ZM9.18892 3.67249V1.25181H10.8111V3.67249H9.18892ZM3.66169 1.25181H7.93892V3.67249H1.64975L3.66169 1.25181ZM18.75 18.2936H1.25V4.92429H7.93892V8.93842L10 7.52521L12.0611 8.93842V4.92429H18.75V18.2936ZM10.2159 12.0742H16.2814V13.326H10.2159V12.0742ZM10.2159 14.1366H16.2814V15.3884H10.2159V14.1366Z" fill="white"/>
</g>
<defs>
<clipPath id="clip0_12_260">
<rect width="20" height="20" fill="white"/>
</clipPath>
</defs>
</svg>
