<svg width="20" height="20" viewBox="0 0 20 20" fill="none" xmlns="http://www.w3.org/2000/svg">
<path d="M19.4231 8.26922C19.7417 8.26922 20 8.0109 20 7.69231V4.6154C20 4.29676 19.7417 4.03848 19.4231 4.03848H0.576914C0.25832 4.03848 0 4.29676 0 4.6154V7.69231C0 8.01094 0.25832 8.26922 0.576914 8.26922C1.53125 8.26922 2.3077 9.04563 2.3077 10C2.3077 10.9544 1.53129 11.7308 0.576914 11.7308C0.25832 11.7308 0 11.9891 0 12.3077V15.3846C0 15.7032 0.25832 15.9615 0.576914 15.9615H19.4231C19.7417 15.9615 20 15.7032 20 15.3846V12.3077C20 11.9891 19.7417 11.7308 19.4231 11.7308C18.4687 11.7308 17.6923 10.9544 17.6923 10C17.6923 9.04563 18.4687 8.26922 19.4231 8.26922ZM18.8462 12.8266V14.8077H6.73078V13.0769C6.73078 12.7583 6.47246 12.5 6.15387 12.5C5.83527 12.5 5.57695 12.7583 5.57695 13.0769V14.8077H1.15383V12.8266C2.46887 12.5586 3.46152 11.393 3.46152 10C3.46152 8.607 2.46887 7.44137 1.15383 7.17337V5.19231H5.57691V6.92309C5.57691 7.24172 5.83523 7.50001 6.15383 7.50001C6.47242 7.50001 6.73074 7.24169 6.73074 6.92309V5.19231H18.8461V7.17337C17.5311 7.44141 16.5384 8.607 16.5384 10C16.5384 11.393 17.5311 12.5586 18.8462 12.8266Z" fill="white"/>
<path d="M6.15382 8.65384C5.83519 8.65384 5.5769 8.91216 5.5769 9.23075V10.7692C5.5769 11.0879 5.83522 11.3461 6.15382 11.3461C6.47241 11.3461 6.73073 11.0878 6.73073 10.7692V9.23075C6.73077 8.91216 6.47245 8.65384 6.15382 8.65384Z" fill="white"/>
</svg>
