<svg width="34" height="34" viewBox="0 0 34 34" fill="none" xmlns="http://www.w3.org/2000/svg">
<g clip-path="url(#clip0_12_179)">
<path d="M29.9419 6.00924C29.7636 3.70003 27.8349 1.87544 25.4881 1.87544H4.57991C2.11581 1.87544 0.111115 3.88648 0.111115 6.35839V27.1C0.111115 29.5719 2.11581 31.5829 4.57991 31.5829H28.7341C31.1982 31.5829 33.2029 29.5719 33.2029 27.1V10.3244C33.2028 8.27244 31.8208 6.53934 29.9419 6.00924ZM4.57991 3.96966H25.4881C26.6242 3.96966 27.5763 4.77208 27.8125 5.84151H4.57991C3.70501 5.84151 2.88868 6.09602 2.19873 6.53371V6.35839C2.19873 5.04125 3.26693 3.96966 4.57991 3.96966ZM28.734 29.4887H4.57991C3.26693 29.4887 2.19873 28.4171 2.19873 27.1V10.3244C2.19873 9.00725 3.26693 7.93566 4.57991 7.93566H28.7341C30.047 7.93566 31.1152 9.00725 31.1152 10.3244V13.9787H24.4593C21.8217 13.9787 19.6759 16.1313 19.6759 18.7773C19.6759 21.4232 21.8218 23.5758 24.4593 23.5758H31.1152V27.1C31.1152 28.4171 30.047 29.4887 28.734 29.4887ZM31.1152 21.4816H24.4593C22.9728 21.4816 21.7635 20.2685 21.7635 18.7773C21.7635 17.286 22.9728 16.0729 24.4593 16.0729H31.1152V21.4816Z" fill="white"/>
<path d="M24.8467 19.9469C25.4469 19.9469 25.9334 19.4588 25.9334 18.8567C25.9334 18.2546 25.4469 17.7665 24.8467 17.7665C24.2465 17.7665 23.76 18.2546 23.76 18.8567C23.76 19.4588 24.2465 19.9469 24.8467 19.9469Z" fill="white"/>
</g>
<defs>
<clipPath id="clip0_12_179">
<rect width="33.0917" height="33.1964" fill="white" transform="translate(0.111115 0.130951)"/>
</clipPath>
</defs>
</svg>
